<svg xmlns="http://www.w3.org/2000/svg" xmlns:xlink="http://www.w3.org/1999/xlink" width="500" zoomAndPan="magnify" viewBox="0 0 375 374.999991" height="500" preserveAspectRatio="xMidYMid meet" version="1.0"><defs><g/><clipPath id="57d6cf7347"><path d="M 80.136719 103 L 203 103 L 203 204 L 80.136719 204 Z M 80.136719 103 " clip-rule="nonzero"/></clipPath><clipPath id="10824d8d08"><path d="M 109 37.5 L 287.136719 37.5 L 287.136719 204 L 109 204 Z M 109 37.5 " clip-rule="nonzero"/></clipPath></defs><g clip-path="url(#57d6cf7347)"><path fill="#0a543f" d="M 189.277344 162.835938 C 200.703125 176.714844 203.0625 187.074219 202.960938 203.992188 L 80.136719 203.992188 L 80.136719 119.15625 L 83.386719 117.8125 L 119.339844 103.027344 L 119.339844 114.296875 L 90.609375 126.105469 L 90.609375 193.546875 L 192.425781 193.546875 C 191.617188 186.890625 188.367188 178.140625 181.226562 169.453125 C 175.015625 161.90625 165.890625 154.480469 152.890625 148.546875 C 144.777344 155.96875 145.957031 161.988281 153.65625 169.144531 L 146.535156 176.777344 C 137.90625 168.773438 133.371094 158.492188 139.996094 147.738281 C 127.554688 149.683594 125.671875 158.226562 126.5 169.433594 L 116.070312 170.15625 C 114.890625 154.210938 119.734375 141.121094 136.789062 137.707031 C 128.199219 133.882812 119.628906 136.570312 114.746094 144.761719 L 105.78125 139.40625 C 114.539062 124.742188 130.867188 121.804688 145.109375 130.285156 C 145.894531 130.761719 146.679688 131.257812 147.46875 131.792969 C 149.890625 116.613281 159.328125 108.589844 174.953125 111.941406 L 172.78125 122.15625 C 165.597656 120.605469 160.902344 122.238281 158.644531 129.414062 C 169.492188 123.460938 181.453125 126.355469 191.636719 132.371094 L 186.316406 141.429688 C 178.019531 136.53125 168.664062 134.046875 160.652344 140.707031 C 173.464844 147.097656 182.738281 154.894531 189.277344 162.835938 Z M 189.277344 162.835938 " fill-opacity="1" fill-rule="evenodd"/></g><g clip-path="url(#10824d8d08)"><path fill="#b89860" d="M 163.507812 84.183594 C 151.503906 89.109375 145.625 97.792969 147.386719 110.925781 L 137.035156 112.269531 C 135.421875 100.191406 138.734375 89.210938 148.109375 81.289062 C 136.621094 81.308594 130.125 85.964844 126.375 97.050781 L 116.484375 93.738281 C 121.96875 77.484375 133.125 70.390625 149.910156 70.90625 C 139.914062 63.214844 125.941406 61.269531 116.195312 70.410156 L 109.03125 62.800781 C 122.007812 50.621094 140.84375 51.570312 154.835938 61.558594 C 155.355469 49.75 162.183594 38.894531 174.5625 37.507812 L 175.699219 47.890625 C 168.25 48.714844 165.332031 56.285156 165.269531 62.945312 C 174.273438 50.289062 189.878906 48.449219 204.242188 51.09375 L 202.359375 61.351562 C 192.257812 59.492188 180.355469 59.882812 173.835938 68.941406 C 188.824219 65.40625 204.367188 69.957031 214.03125 82.261719 L 205.816406 88.714844 C 198.21875 79.054688 185.757812 76.121094 174.273438 79.59375 C 193.023438 95.847656 205.421875 113.261719 213.515625 129.890625 C 225.769531 155.101562 228.085938 178.554688 227.589844 193.527344 L 276.644531 193.527344 L 276.644531 96.90625 L 236.074219 66.273438 L 218.855469 73.367188 L 218.855469 62.097656 L 234.875 55.5 L 237.628906 54.363281 L 240.007812 56.140625 L 285.046875 90.121094 L 287.136719 91.691406 L 287.136719 203.992188 L 216.496094 203.992188 C 216.496094 203.992188 217.117188 199.113281 217.179688 193.527344 C 217.675781 179.816406 215.605469 158.039062 204.117188 134.421875 C 196.023438 117.832031 183.296875 100.359375 163.507812 84.183594 Z M 234.625 124.285156 L 245.101562 124.285156 L 245.101562 134.75 L 234.625 134.75 Z M 245.101562 118.640625 L 234.625 118.640625 L 234.625 108.175781 L 245.101562 108.175781 Z M 251.0625 118.640625 L 251.0625 108.175781 L 261.535156 108.175781 L 261.535156 118.640625 Z M 251.0625 124.285156 L 261.535156 124.285156 L 261.535156 134.75 L 251.0625 134.75 Z M 251.0625 124.285156 " fill-opacity="1" fill-rule="evenodd"/></g><g fill="#000000" fill-opacity="1"><g transform="translate(18.557996, 268.101485)"><g><path d="M 0.65625 -34.300781 L 13.054688 0 L 21.246094 0 L 33.6875 -34.300781 L 26.152344 -34.300781 L 17.214844 -8.234375 L 8.324219 -34.300781 Z M 0.65625 -34.300781 "/></g></g></g><g fill="#000000" fill-opacity="1"><g transform="translate(52.891997, 268.101485)"><g><path d="M 11.082031 -34.300781 L 3.988281 -34.300781 L 3.988281 0 L 11.082031 0 Z M 11.082031 -34.300781 "/></g></g></g><g fill="#000000" fill-opacity="1"><g transform="translate(68.000702, 268.101485)"><g><path d="M 3.988281 -34.300781 L 3.988281 0 L 25.714844 0 L 25.714844 -6.746094 L 11.039062 -6.746094 L 11.039062 -34.300781 Z M 3.988281 -34.300781 "/></g></g></g><g fill="#000000" fill-opacity="1"><g transform="translate(94.451906, 268.101485)"><g><path d="M 3.988281 -34.300781 L 3.988281 0 L 25.714844 0 L 25.714844 -6.746094 L 11.039062 -6.746094 L 11.039062 -34.300781 Z M 3.988281 -34.300781 "/></g></g></g><g fill="#000000" fill-opacity="1"><g transform="translate(120.90311, 268.101485)"><g><path d="M 7.097656 0 L 9.636719 -6.921875 L 24.839844 -6.921875 L 27.421875 0 L 34.738281 0 L 21.597656 -34.300781 L 13.054688 -34.300781 L -0.0429688 0 Z M 17.257812 -27.421875 L 22.429688 -13.492188 L 12.089844 -13.492188 Z M 17.257812 -27.421875 "/></g></g></g><g fill="#000000" fill-opacity="1"><g transform="translate(155.587458, 268.101485)"><g><path d="M 9.113281 -17.171875 C 9.113281 -23.390625 13.886719 -28.125 19.667969 -28.125 C 25.1875 -28.125 27.859375 -24.664062 28.867188 -22.078125 L 35.132812 -25.144531 C 33.597656 -29.4375 28.519531 -34.824219 19.757812 -34.824219 C 9.988281 -34.824219 1.882812 -27.117188 1.882812 -17.128906 C 1.882812 -7.359375 9.066406 0.527344 19.667969 0.527344 C 28.035156 0.527344 35.921875 -5.082031 35.921875 -15.769531 L 35.921875 -18.441406 L 18.09375 -18.441406 L 18.09375 -12.003906 L 28.519531 -12.003906 C 27.683594 -8.628906 24.3125 -6.21875 19.667969 -6.21875 C 13.449219 -6.21875 9.113281 -11.214844 9.113281 -17.171875 Z M 9.113281 -17.171875 "/></g></g></g><g fill="#000000" fill-opacity="1"><g transform="translate(193.118368, 268.101485)"><g><path d="M 3.988281 -34.300781 L 3.988281 0 L 26.546875 0 L 26.546875 -6.613281 L 10.996094 -6.613281 L 10.996094 -14.019531 L 24.839844 -14.019531 L 24.839844 -20.675781 L 10.996094 -20.675781 L 10.996094 -27.640625 L 26.457031 -27.640625 L 26.457031 -34.300781 Z M 3.988281 -34.300781 "/></g></g></g><g fill="#000000" fill-opacity="1"><g transform="translate(222.153379, 268.101485)"><g><path d="M 0.65625 -34.300781 L 13.054688 0 L 21.246094 0 L 33.6875 -34.300781 L 26.152344 -34.300781 L 17.214844 -8.234375 L 8.324219 -34.300781 Z M 0.65625 -34.300781 "/></g></g></g><g fill="#000000" fill-opacity="1"><g transform="translate(256.48738, 268.101485)"><g><path d="M 11.082031 -34.300781 L 3.988281 -34.300781 L 3.988281 0 L 11.082031 0 Z M 11.082031 -34.300781 "/></g></g></g><g fill="#000000" fill-opacity="1"><g transform="translate(271.596085, 268.101485)"><g><path d="M 9.285156 -24.925781 C 9.285156 -26.941406 10.996094 -28.429688 13.84375 -28.429688 C 16.777344 -28.429688 19.1875 -26.984375 20.324219 -24.226562 L 26.195312 -27.421875 C 24.226562 -32.109375 19.886719 -34.824219 14.148438 -34.824219 C 7.667969 -34.824219 2.191406 -30.621094 2.191406 -24.488281 C 2.191406 -21.859375 3.242188 -19.667969 4.820312 -18.136719 C 6.660156 -16.296875 9.507812 -15.070312 13.1875 -13.972656 C 18.179688 -12.484375 19.667969 -11.566406 19.667969 -9.550781 C 19.667969 -7.445312 17.523438 -5.914062 14.457031 -5.914062 C 10.996094 -5.914062 8.28125 -7.710938 6.964844 -10.6875 L 0.832031 -7.535156 C 2.847656 -2.628906 7.753906 0.527344 14.238281 0.527344 C 22.339844 0.527344 26.808594 -4.03125 26.808594 -10.074219 C 26.808594 -15.859375 22.429688 -18.53125 14.804688 -20.71875 C 11.125 -21.773438 9.285156 -22.777344 9.285156 -24.925781 Z M 9.285156 -24.925781 "/></g></g></g><g fill="#000000" fill-opacity="1"><g transform="translate(300.149371, 268.101485)"><g><path d="M 11.214844 0 L 18.265625 0 L 18.265625 -27.421875 L 28.5625 -27.421875 L 28.5625 -34.300781 L 0.921875 -34.300781 L 0.921875 -27.421875 L 11.214844 -27.421875 Z M 11.214844 0 "/></g></g></g><g fill="#000000" fill-opacity="1"><g transform="translate(329.622301, 268.101485)"><g><path d="M 7.097656 0 L 9.636719 -6.921875 L 24.839844 -6.921875 L 27.421875 0 L 34.738281 0 L 21.597656 -34.300781 L 13.054688 -34.300781 L -0.0429688 0 Z M 17.257812 -27.421875 L 22.429688 -13.492188 L 12.089844 -13.492188 Z M 17.257812 -27.421875 "/></g></g></g><g fill="#0a543f" fill-opacity="1"><g transform="translate(119.507487, 298.034551)"><g><path d="M 12.359375 -9.9375 L 12.359375 -15.921875 L 15.5 -15.921875 L 15.5 0 L 12.359375 0 L 12.359375 -7.25 L 5.21875 -7.25 L 5.21875 0 L 2.0625 0 L 2.0625 -15.921875 L 5.21875 -15.921875 L 5.21875 -9.9375 Z M 12.359375 -9.9375 "/></g></g></g><g fill="#0a543f" fill-opacity="1"><g transform="translate(139.64668, 298.034551)"><g><path d="M 8.6875 0.234375 C 7.226562 0.234375 5.941406 -0.0625 4.828125 -0.65625 C 3.710938 -1.257812 2.835938 -2.171875 2.203125 -3.390625 C 1.566406 -4.617188 1.25 -6.144531 1.25 -7.96875 C 1.25 -9.789062 1.566406 -11.3125 2.203125 -12.53125 C 2.835938 -13.757812 3.710938 -14.671875 4.828125 -15.265625 C 5.941406 -15.859375 7.226562 -16.15625 8.6875 -16.15625 C 10.144531 -16.15625 11.425781 -15.859375 12.53125 -15.265625 C 13.644531 -14.671875 14.515625 -13.757812 15.140625 -12.53125 C 15.773438 -11.3125 16.09375 -9.789062 16.09375 -7.96875 C 16.09375 -6.144531 15.773438 -4.617188 15.140625 -3.390625 C 14.515625 -2.160156 13.644531 -1.25 12.53125 -0.65625 C 11.425781 -0.0625 10.144531 0.234375 8.6875 0.234375 Z M 8.6875 -2.5 C 10.03125 -2.5 11.054688 -2.929688 11.765625 -3.796875 C 12.484375 -4.671875 12.84375 -6.0625 12.84375 -7.96875 C 12.84375 -9.863281 12.484375 -11.25 11.765625 -12.125 C 11.054688 -13 10.03125 -13.4375 8.6875 -13.4375 C 7.320312 -13.4375 6.28125 -13 5.5625 -12.125 C 4.851562 -11.25 4.5 -9.863281 4.5 -7.96875 C 4.5 -6.0625 4.851562 -4.671875 5.5625 -3.796875 C 6.28125 -2.929688 7.320312 -2.5 8.6875 -2.5 Z M 8.6875 -2.5 "/></g></g></g><g fill="#0a543f" fill-opacity="1"><g transform="translate(159.568, 298.034551)"><g><path d="M 4.953125 0 L 2.0625 0 L 2.0625 -15.921875 L 6.1875 -15.921875 L 10.21875 -4.21875 L 10.453125 -4.21875 L 14.453125 -15.921875 L 18.484375 -15.921875 L 18.484375 0 L 15.5 0 L 15.5 -10.53125 L 15.21875 -10.5625 L 11.53125 0 L 8.90625 0 L 5.234375 -10.5625 L 4.953125 -10.53125 Z M 4.953125 0 "/></g></g></g><g fill="#0a543f" fill-opacity="1"><g transform="translate(182.692056, 298.034551)"><g><path d="M 5.21875 -7 L 5.21875 -2.640625 L 12.828125 -2.640625 L 12.828125 0 L 2.0625 0 L 2.0625 -15.921875 L 12.65625 -15.921875 L 12.65625 -13.296875 L 5.21875 -13.296875 L 5.21875 -9.5625 L 11.71875 -9.5625 L 11.71875 -7 Z M 5.21875 -7 "/></g></g></g><g fill="#0a543f" fill-opacity="1"><g transform="translate(198.953105, 298.034551)"><g><path d="M 7.0625 0.234375 C 5.957031 0.234375 4.972656 0.0976562 4.109375 -0.171875 C 3.253906 -0.453125 2.535156 -0.8125 1.953125 -1.25 C 1.378906 -1.695312 0.941406 -2.1875 0.640625 -2.71875 L 2.375 -4.828125 L 2.640625 -4.828125 C 3.117188 -4.117188 3.726562 -3.550781 4.46875 -3.125 C 5.207031 -2.707031 6.070312 -2.5 7.0625 -2.5 C 7.90625 -2.5 8.539062 -2.675781 8.96875 -3.03125 C 9.394531 -3.382812 9.609375 -3.875 9.609375 -4.5 C 9.609375 -4.875 9.535156 -5.1875 9.390625 -5.4375 C 9.253906 -5.695312 9.023438 -5.914062 8.703125 -6.09375 C 8.390625 -6.28125 7.960938 -6.4375 7.421875 -6.5625 L 5.375 -7.03125 C 3.9375 -7.363281 2.867188 -7.910156 2.171875 -8.671875 C 1.472656 -9.429688 1.125 -10.414062 1.125 -11.625 C 1.125 -12.519531 1.347656 -13.3125 1.796875 -14 C 2.242188 -14.6875 2.898438 -15.21875 3.765625 -15.59375 C 4.628906 -15.96875 5.660156 -16.15625 6.859375 -16.15625 C 8.078125 -16.15625 9.125 -15.992188 10 -15.671875 C 10.875 -15.347656 11.613281 -14.851562 12.21875 -14.1875 L 10.671875 -12.046875 L 10.390625 -12.046875 C 9.941406 -12.515625 9.425781 -12.867188 8.84375 -13.109375 C 8.257812 -13.347656 7.597656 -13.46875 6.859375 -13.46875 C 5.992188 -13.46875 5.332031 -13.3125 4.875 -13 C 4.425781 -12.695312 4.203125 -12.28125 4.203125 -11.75 C 4.203125 -11.25 4.359375 -10.847656 4.671875 -10.546875 C 4.992188 -10.242188 5.539062 -10.007812 6.3125 -9.84375 L 8.40625 -9.40625 C 9.957031 -9.082031 11.082031 -8.53125 11.78125 -7.75 C 12.476562 -6.96875 12.828125 -5.953125 12.828125 -4.703125 C 12.828125 -3.703125 12.609375 -2.832031 12.171875 -2.09375 C 11.742188 -1.351562 11.097656 -0.78125 10.234375 -0.375 C 9.367188 0.03125 8.3125 0.234375 7.0625 0.234375 Z M 7.0625 0.234375 "/></g></g></g><g fill="#0a543f" fill-opacity="1"><g transform="translate(215.20325, 298.034551)"><g><path d="M 12.765625 -15.921875 L 12.765625 -13.28125 L 8.171875 -13.28125 L 8.171875 0 L 5.03125 0 L 5.03125 -13.28125 L 0.4375 -13.28125 L 0.4375 -15.921875 Z M 12.765625 -15.921875 "/></g></g></g><g fill="#0a543f" fill-opacity="1"><g transform="translate(230.974074, 298.034551)"><g><path d="M 15.28125 0 L 11.96875 0 L 10.78125 -3.671875 L 4.671875 -3.671875 L 3.46875 0 L 0.234375 0 L 5.734375 -15.921875 L 9.78125 -15.921875 Z M 7.578125 -12.609375 L 5.53125 -6.3125 L 9.90625 -6.3125 L 7.84375 -12.609375 Z M 7.578125 -12.609375 "/></g></g></g><g fill="#0a543f" fill-opacity="1"><g transform="translate(249.065256, 298.034551)"><g><path d="M 8.734375 0 L 5.578125 0 L 5.578125 -6.25 L 0.078125 -15.921875 L 3.453125 -15.921875 L 7.09375 -9.65625 L 7.359375 -9.65625 L 10.921875 -15.921875 L 14.234375 -15.921875 L 8.734375 -6.25 Z M 8.734375 0 "/></g></g></g><path stroke-linecap="butt" transform="matrix(0.75, 0, 0, 0.75, 20.504434, 287.983339)" fill="none" stroke-linejoin="miter" d="M -0.000703178 5.001381 L 100.785762 5.001381 " stroke="#b89860" stroke-width="10" stroke-opacity="1" stroke-miterlimit="4"/><path stroke-linecap="butt" transform="matrix(0.75, 0, 0, 0.75, 286.80271, 286.723107)" fill="none" stroke-linejoin="miter" d="M -0.00257122 4.9994 L 100.783894 4.9994 " stroke="#b89860" stroke-width="10" stroke-opacity="1" stroke-miterlimit="4"/></svg>