<svg xmlns="http://www.w3.org/2000/svg" xmlns:xlink="http://www.w3.org/1999/xlink" width="500" zoomAndPan="magnify" viewBox="0 0 375 374.999991" height="500" preserveAspectRatio="xMidYMid meet" version="1.0"><defs><clipPath id="8a9eeada46"><path d="M 0 155 L 223 155 L 223 338.8125 L 0 338.8125 Z M 0 155 " clip-rule="nonzero"/></clipPath><clipPath id="2ef5af336f"><path d="M 52 36.5625 L 375 36.5625 L 375 338.8125 L 52 338.8125 Z M 52 36.5625 " clip-rule="nonzero"/></clipPath></defs><g clip-path="url(#8a9eeada46)"><path fill="#ffffff" d="M 197.71875 263.804688 C 218.414062 288.964844 222.691406 307.75 222.503906 338.421875 L 0 338.421875 L 0 184.613281 L 5.886719 182.175781 L 71.019531 155.367188 L 71.019531 175.800781 L 18.972656 197.210938 L 18.972656 319.488281 L 203.417969 319.488281 C 201.953125 307.414062 196.066406 291.550781 183.132812 275.804688 C 171.882812 262.117188 155.347656 248.65625 131.800781 237.894531 C 117.101562 251.355469 119.238281 262.265625 133.1875 275.242188 L 120.289062 289.078125 C 104.652344 274.566406 96.441406 255.929688 108.4375 236.433594 C 85.902344 239.957031 82.492188 255.441406 83.992188 275.765625 L 65.09375 277.078125 C 62.957031 248.167969 71.730469 224.433594 102.628906 218.246094 C 87.066406 211.308594 71.542969 216.183594 62.695312 231.03125 L 46.457031 221.320312 C 62.320312 194.738281 91.902344 189.414062 117.699219 204.785156 C 119.125 205.648438 120.550781 206.546875 121.976562 207.523438 C 126.363281 180 143.460938 165.453125 171.769531 171.527344 L 167.832031 190.050781 C 154.820312 187.238281 146.308594 190.199219 142.222656 203.210938 C 161.871094 192.410156 183.542969 197.660156 201.992188 208.574219 L 192.355469 224.996094 C 177.320312 216.109375 160.371094 211.609375 145.859375 223.683594 C 169.070312 235.269531 185.867188 249.40625 197.71875 263.804688 Z M 197.71875 263.804688 " fill-opacity="1" fill-rule="evenodd"/></g><g clip-path="url(#2ef5af336f)"><path fill="#e1ba75" d="M 151.035156 121.207031 C 129.285156 130.128906 118.636719 145.878906 121.824219 169.6875 L 103.078125 172.125 C 100.152344 150.230469 106.152344 130.316406 123.136719 115.957031 C 102.328125 115.996094 90.554688 124.429688 83.765625 144.527344 L 65.84375 138.53125 C 75.78125 109.058594 95.992188 96.195312 126.398438 97.132812 C 108.289062 83.183594 82.980469 79.660156 65.320312 96.234375 L 52.34375 82.433594 C 75.855469 60.351562 109.976562 62.074219 135.324219 80.1875 C 136.261719 58.773438 148.636719 39.089844 171.058594 36.578125 L 173.121094 55.402344 C 159.621094 56.902344 154.335938 70.625 154.222656 82.699219 C 170.53125 59.75 198.804688 56.414062 224.828125 61.210938 L 221.414062 79.8125 C 203.117188 76.4375 181.558594 77.148438 169.746094 93.570312 C 196.894531 87.160156 225.050781 95.410156 242.5625 117.71875 L 227.675781 129.417969 C 213.917969 111.90625 191.34375 106.582031 170.53125 112.882812 C 204.503906 142.355469 226.964844 173.925781 241.625 204.074219 C 263.824219 249.78125 268.023438 292.300781 267.125 319.449219 L 355.988281 319.449219 L 355.988281 144.265625 L 282.496094 88.734375 L 251.300781 101.597656 L 251.300781 81.160156 L 280.320312 69.199219 L 285.308594 67.136719 L 289.621094 70.363281 L 371.210938 131.96875 L 375 134.816406 L 375 338.421875 L 247.023438 338.421875 C 247.023438 338.421875 248.148438 329.574219 248.261719 319.449219 C 249.164062 294.589844 245.414062 255.105469 224.601562 212.285156 C 209.941406 182.214844 186.882812 150.527344 151.035156 121.207031 Z M 279.871094 193.910156 L 298.84375 193.910156 L 298.84375 212.886719 L 279.871094 212.886719 Z M 298.84375 183.675781 L 279.871094 183.675781 L 279.871094 164.703125 L 298.84375 164.703125 Z M 309.644531 183.675781 L 309.644531 164.703125 L 328.617188 164.703125 L 328.617188 183.675781 Z M 309.644531 193.910156 L 328.617188 193.910156 L 328.617188 212.886719 L 309.644531 212.886719 Z M 309.644531 193.910156 " fill-opacity="1" fill-rule="evenodd"/></g></svg>